<svg aria-hidden="true" style="position: absolute; width: 0; height: 0; overflow: hidden;" version="1.1" xmlns="http://www.w3.org/2000/svg" xmlns:xlink="http://www.w3.org/1999/xlink">
<defs>
<symbol id="icon-Burger-menu" viewBox="0 0 32 32">
<path d="M4 22.667c0 0.736 0.597 1.333 1.333 1.333h21.333c0.736 0 1.333-0.597 1.333-1.333s-0.597-1.333-1.333-1.333h-21.333c-0.736 0-1.333 0.597-1.333 1.333zM4 16c0 0.736 0.597 1.333 1.333 1.333h21.333c0.736 0 1.333-0.597 1.333-1.333s-0.597-1.333-1.333-1.333h-21.333c-0.736 0-1.333 0.597-1.333 1.333zM5.333 8c-0.736 0-1.333 0.597-1.333 1.333s0.597 1.333 1.333 1.333h21.333c0.736 0 1.333-0.597 1.333-1.333s-0.597-1.333-1.333-1.333h-21.333z"></path>
</symbol>
<symbol id="icon-Icon-Burger-menu-hover" viewBox="0 0 32 32">
<path d="M4 22.667c0 0.736 0.597 1.333 1.333 1.333h9.333c0.736 0 1.333-0.597 1.333-1.333s-0.597-1.333-1.333-1.333h-9.333c-0.736 0-1.333 0.597-1.333 1.333zM4 16c0 0.736 0.597 1.333 1.333 1.333h21.333c0.736 0 1.333-0.597 1.333-1.333s-0.597-1.333-1.333-1.333h-21.333c-0.736 0-1.333 0.597-1.333 1.333zM5.333 8c-0.736 0-1.333 0.597-1.333 1.333s0.597 1.333 1.333 1.333h14.667c0.736 0 1.333-0.597 1.333-1.333s-0.597-1.333-1.333-1.333h-14.667z"></path>
</symbol>
<symbol id="icon-Icon-Close" viewBox="0 0 32 32">
<path d="M25.592 8.556c0.593-0.593 0.593-1.555 0-2.149s-1.555-0.593-2.149 0l-7.444 7.444-7.444-7.444c-0.593-0.593-1.555-0.593-2.149 0s-0.593 1.555 0 2.149l7.444 7.444-7.444 7.444c-0.593 0.593-0.593 1.555 0 2.149s1.555 0.593 2.149 0l7.444-7.444 7.444 7.444c0.593 0.593 1.555 0.593 2.149 0s0.593-1.555 0-2.149l-7.444-7.444 7.444-7.444z"></path>
</symbol>
</defs>
</svg>
